<mxfile host="app.diagrams.net" modified="2023-10-22T22:17:35.730Z" agent="Mozilla/5.0 (Windows NT 10.0; Win64; x64) AppleWebKit/537.36 (KHTML, like Gecko) Chrome/118.0.0.0 Safari/537.36" version="22.0.6" etag="vVstHdpt_2nXfd5U_778" type="github">
  <diagram name="PÃ¡gina-1" id="oI9TYDiOCawssJ5pB_Mc">
    <mxGraphModel>
      <root>
        <mxCell id="0" />
        <mxCell id="1" parent="0" />
      </root>
    </mxGraphModel>
  </diagram>
</mxfile>
